<svg width="17" height="17" viewBox="0 0 17 17" fill="none" xmlns="http://www.w3.org/2000/svg">
<g clip-path="url(#clip0_478_402)">
<path d="M0.814453 2.021C0.814453 1.388 1.34045 0.875 1.98945 0.875H15.6395C16.2885 0.875 16.8145 1.388 16.8145 2.021V15.729C16.8145 16.362 16.2885 16.875 15.6395 16.875H1.98945C1.34045 16.875 0.814453 16.362 0.814453 15.729V2.021ZM5.75745 14.269V7.044H3.35645V14.269H5.75745ZM4.55745 6.057C5.39445 6.057 5.91545 5.503 5.91545 4.809C5.90045 4.1 5.39545 3.561 4.57345 3.561C3.75145 3.561 3.21445 4.101 3.21445 4.809C3.21445 5.503 3.73545 6.057 4.54145 6.057H4.55745ZM9.46545 14.269V10.234C9.46545 10.018 9.48145 9.802 9.54545 9.648C9.71845 9.217 10.1135 8.77 10.7775 8.77C11.6465 8.77 11.9935 9.432 11.9935 10.404V14.269H14.3945V10.125C14.3945 7.905 13.2105 6.873 11.6305 6.873C10.3565 6.873 9.78545 7.573 9.46545 8.066V8.091H9.44945C9.45476 8.08265 9.4601 8.07432 9.46545 8.066V7.044H7.06545C7.09545 7.722 7.06545 14.269 7.06545 14.269H9.46545Z" fill="#101010"/>
</g>
<defs>
<clipPath id="clip0_478_402">
<rect width="16" height="16" fill="white" transform="translate(0.814453 0.875)"/>
</clipPath>
</defs>
</svg>
