<svg width="71" height="38" viewBox="0 0 71 38" fill="none" xmlns="http://www.w3.org/2000/svg">
<path d="M8.18645 34.5614L1.60349 18.7129L8.18645 3.46668L8.18645 34.5614Z" stroke="#101010" stroke-width="1.267" stroke-linejoin="round"/>
<path d="M18.657 1.50011L1.12747 18.7792L18.6569 36.3402C18.6694 36.3528 18.691 36.3439 18.691 36.3261L18.691 18.9205L18.691 1.51435C18.691 1.4966 18.6696 1.48765 18.657 1.50011Z" stroke="#101010" stroke-width="1.267"/>
<path d="M31.2277 1.63032L1.45068 18.8494L31.2275 36.3506C31.2451 36.3609 31.2673 36.3483 31.2673 36.3279L31.2673 1.65316C31.2673 1.63284 31.2453 1.62015 31.2277 1.63032Z" stroke="#101010" stroke-width="1.267"/>
<path d="M0.858902 2.11694L0.858888 36.0234" stroke="#101010" stroke-width="1.267" stroke-linecap="round"/>
<path d="M42.9411 19.3697C43.3856 19.3697 43.519 19.4364 43.719 19.6809C44.2302 20.3255 47.142 24.8154 47.3198 25.0821C47.5199 25.3933 47.142 25.7044 46.653 25.7044H46.3196C46.1862 25.7044 46.1418 25.7711 46.1196 25.9267L46.0751 26.2824C46.0529 26.4602 46.1196 26.5269 46.2751 26.5269C46.5419 26.5269 47.7644 26.4602 49.0758 26.4602C50.4761 26.4602 51.0762 26.5269 51.343 26.5269C51.543 26.5269 51.5875 26.4824 51.6319 26.3046L51.7208 25.9267C51.743 25.8156 51.6764 25.7044 51.5208 25.7044H50.8762C50.3872 25.7044 49.6759 25.171 49.2758 24.7042C48.7424 24.0596 45.475 19.3252 45.3194 19.014C45.6306 18.6584 51.0985 13.7684 52.0098 13.0571C52.521 12.6571 53.0989 12.3236 53.7657 12.3236H54.4548C54.6104 12.3236 54.6326 12.2347 54.677 12.1014L54.7659 11.7013C54.7882 11.5902 54.7215 11.5012 54.5215 11.5012C54.3214 11.5012 53.699 11.5679 52.3654 11.5679C51.0762 11.5679 50.1427 11.5012 49.9204 11.5012C49.787 11.5012 49.7204 11.5457 49.6759 11.6791L49.587 12.0791C49.5648 12.1903 49.6092 12.3014 49.7648 12.3014H50.0315C50.6317 12.3014 50.7206 12.6571 50.4094 13.0571C49.5425 14.1463 46.9642 16.369 44.986 18.125C44.3858 18.6806 44.0969 18.7473 43.1411 18.7473L44.8081 13.5017C45.0749 12.6793 45.4972 12.3236 46.2529 12.3236H46.7864C46.9642 12.3236 47.0309 12.3014 47.0531 12.1458L47.1198 11.7235C47.142 11.5902 47.1198 11.5012 46.9864 11.5012C46.7197 11.5012 46.0529 11.5679 44.2747 11.5679C42.7855 11.5679 41.9853 11.5012 41.7852 11.5012C41.6297 11.5012 41.563 11.5235 41.5185 11.6346L41.3629 12.1014C41.3185 12.2347 41.3852 12.3236 41.563 12.3236H42.1187C42.9633 12.3236 43.1633 12.7682 42.8522 13.7462L39.4292 24.3708C39.1402 25.2821 38.5845 25.7044 38.0066 25.7044H37.3843C37.2064 25.7044 37.162 25.7711 37.1398 25.8823L37.0508 26.2824C37.0286 26.4157 37.0953 26.5269 37.2287 26.5269C37.3843 26.5269 38.0511 26.4602 39.7181 26.4602C41.2296 26.4602 42.2076 26.5269 42.4521 26.5269C42.6521 26.5269 42.7188 26.4602 42.741 26.349L42.8299 25.9267C42.8522 25.7711 42.7855 25.7044 42.6743 25.7044H42.1187C41.4074 25.7044 41.0517 25.2154 41.3629 24.2374L42.9411 19.3697Z" fill="#101010"/>
<path d="M51.7039 26.6824C53.5487 26.6824 55.3269 24.5486 55.4603 24.3708C55.5269 24.2597 55.5047 24.2152 55.4158 24.1041L55.238 23.9485C55.1269 23.8374 55.0379 23.8374 54.9935 23.904C54.8824 24.1041 53.6821 25.371 53.2153 25.4599C53.0375 25.4155 52.9708 25.2821 52.9708 25.0821C52.9708 24.9265 53.0597 24.4375 53.3709 23.6151L54.6601 20.2365C55.0602 19.1696 55.4158 18.1694 55.4158 17.7693C55.4158 17.3915 55.1491 17.2136 54.8824 17.2136C53.4598 17.147 51.1926 19.8142 51.1037 19.9476C51.037 20.0365 51.0815 20.081 51.1704 20.1476L51.3482 20.3477C51.4149 20.4144 51.5038 20.4144 51.5927 20.3255C51.9484 19.9698 52.993 18.7695 53.3709 18.7695C53.5487 18.7695 53.6821 18.8585 53.6821 19.0585C53.6821 19.3252 53.5043 19.7698 53.282 20.3699L52.6374 22.1036C51.7039 24.5931 51.326 25.6155 51.326 26.1268C51.326 26.4824 51.4816 26.6602 51.7039 26.6824Z" fill="#101010"/>
<path d="M63.9312 12.2125C64.5314 12.2125 64.6425 12.6571 64.4869 13.0794L62.7754 17.9471C62.3976 17.5026 61.9752 17.2136 61.3751 17.2136C59.8859 17.2136 58.5967 18.325 57.8854 19.014C56.0628 20.8145 54.8181 23.4595 54.8181 25.2154C54.8181 26.1712 55.4849 26.6824 56.2406 26.6824C57.7521 26.6824 59.8414 24.6375 60.9306 22.9038L61.1084 22.9483C60.6194 24.2152 60.1304 25.7267 60.1304 26.1712C60.1304 26.5713 60.3749 26.6824 60.7305 26.6824C61.9086 26.6824 63.8201 24.9043 63.9757 24.7042C64.0424 24.6153 64.0424 24.5264 63.9757 24.4819L63.7534 24.2597C63.6867 24.1708 63.5978 24.1708 63.5089 24.2374C63.3978 24.3708 62.3309 25.3933 61.953 25.3933C61.6418 25.3933 61.6641 25.0599 61.8641 24.3708C62.242 23.0372 66.1317 12.6348 66.4651 11.8569C66.5541 11.6791 66.5096 11.4568 66.1984 11.4568H63.4645C63.2644 11.4568 63.22 11.5012 63.1977 11.5902L63.0644 12.0569C63.0421 12.1236 63.0644 12.2125 63.2422 12.2125H63.9312ZM57.0852 25.5489C56.7741 25.5489 56.4407 25.3044 56.4407 24.8376C56.4407 22.7927 58.7967 17.9249 60.8861 17.9249C61.5974 17.9249 62.0641 18.3472 62.0641 19.3919C62.0641 20.2588 61.2417 21.6591 60.6194 22.5037C59.7303 23.7262 58.0188 25.5489 57.0852 25.5489Z" fill="#101010"/>
<path d="M65.8089 26.6824C69.0318 26.6824 70.9656 22.2592 70.9656 19.8142C70.9656 18.3028 70.0765 17.2136 68.5873 17.2136C65.6311 17.2136 63.5195 21.0145 63.5195 23.8151C63.5195 25.5044 64.5864 26.6824 65.8089 26.6824ZM65.4755 25.6155C64.942 25.6155 64.453 25.1932 64.453 24.4819C64.453 23.4373 64.9865 22.0814 65.7422 20.8811C66.8536 19.0807 68.0316 18.2361 68.9652 18.2361C69.6987 18.2361 70.0988 18.7918 70.0765 19.4808C70.0765 20.9478 67.7871 25.6155 65.4755 25.6155Z" fill="#101010"/>
</svg>
