<svg width="276" height="107" viewBox="0 0 276 107" fill="none" xmlns="http://www.w3.org/2000/svg">
<g id="Group 7">
<path id="DesignOps" d="M19.1369 70.8359H1.07479V70.1206C5.12832 70.1206 5.36676 67.1401 5.36676 62.7289V35.5464C5.36676 31.1352 5.12832 28.1546 1.07479 28.1546V27.4393H19.6137C33.6223 27.4393 41.1332 35.0099 41.1332 48.6011C41.1332 62.4308 32.8473 70.8359 19.1369 70.8359ZM19.8522 69.1668C28.3765 69.1668 31.5955 62.1328 31.5955 48.9588C31.5955 36.8578 28.2573 29.1084 19.4945 29.1084H16.4544C15.0237 29.1084 14.1892 29.8237 14.1892 31.2544V65.3517C14.1892 67.9746 15.3218 69.1668 19.8522 69.1668ZM69.3794 62.6693L70.4524 63.325C68.0084 67.4381 64.3125 71.5513 57.6361 71.5513C48.6945 71.5513 44.0448 64.2788 44.0448 55.7544C44.0448 46.2763 50.2444 38.8846 59.0667 38.8846C66.5777 38.8846 70.8697 44.0111 70.3928 51.9989H52.5096C52.5096 61.2386 55.192 66.9016 61.63 66.9016C65.0874 66.9016 67.5911 64.8153 69.3794 62.6693ZM58.8283 40.4344C54.7152 40.4344 52.8672 44.9053 52.5692 50.2106H63.0011C63.4779 43.8323 62.5838 40.4344 58.8283 40.4344ZM81.9284 71.5513C79.0075 71.5513 75.3116 70.9552 73.0464 69.9418L72.5099 61.2982H73.2252C75.7289 66.2459 78.2325 70.0014 82.9418 70.0014C85.9819 70.0014 88.426 68.3919 88.426 65.471C88.426 62.55 86.3992 61.2386 82.2265 59.033L79.9016 57.7812C77.3384 56.4101 73.2252 54.2045 73.2252 48.5415C73.2252 42.4016 78.1133 38.8846 84.2532 38.8846C86.6376 38.8846 90.3335 39.4211 92.7776 40.3748V47.5877H92.0622C90.0951 43.2958 87.5318 40.4344 83.7167 40.4344C80.7362 40.4344 79.0075 42.1632 79.0075 44.488C79.0075 47.7666 81.8092 49.1972 83.6571 50.151L85.9819 51.4028C90.0355 53.5488 94.2678 55.516 94.2678 61.2982C94.2678 67.617 89.2605 71.5513 81.9284 71.5513ZM102.868 34.9503C100.186 34.9503 98.0992 32.8639 98.0992 30.1814C98.0992 27.6181 100.186 25.4721 102.868 25.4721C105.431 25.4721 107.577 27.6181 107.577 30.1814C107.577 32.8639 105.431 34.9503 102.868 34.9503ZM110.021 70.8359H96.4301V70.1206C98.8742 70.1206 99.053 68.0938 99.053 64.2788V47.707C99.053 43.8919 98.0396 42.8189 96.0128 42.1035V41.3882L106.922 39.0038H107.398V64.2788C107.398 68.0938 107.577 70.1206 110.021 70.1206V70.8359ZM120.796 63.6826H131.168C137.725 63.6826 141.302 66.544 141.302 71.7897C141.302 79.8372 131.824 85.1425 123.001 85.1425C115.311 85.1425 111.794 81.6255 111.794 77.9296C111.794 74.5318 114.358 72.9819 117.04 71.6705L117.994 71.2532H119.424C118.471 72.5646 118.113 73.8165 118.113 75.426C118.113 79.8372 121.57 82.4004 127.472 82.4004C132.36 82.4004 136.235 79.9564 136.235 75.6644C136.235 72.5646 134.089 70.5975 129.916 70.5975H118.352C114.536 70.5975 112.867 68.5111 112.867 65.769C112.867 63.0269 114.954 60.9406 118.53 58.9138C114.775 57.2447 112.569 53.9661 112.569 49.5549C112.569 43.1765 117.457 38.8846 124.789 38.8846C127.055 38.8846 129.022 39.2422 130.751 39.9576L141.302 39.0634L140.229 42.9381L134.327 42.4016C135.937 44.1303 136.89 46.5147 136.89 49.3761C136.89 55.814 132.062 60.0464 124.73 60.0464C123.061 60.0464 121.511 59.8676 120.08 59.4503C118.709 60.4637 118.292 61.0598 118.292 61.9539C118.292 62.9077 118.948 63.6826 120.796 63.6826ZM124.73 40.4344C121.094 40.4344 119.842 44.0111 119.842 49.4357C119.842 54.8603 121.034 58.4965 124.73 58.4965C128.426 58.4965 129.558 54.8603 129.558 49.4357C129.558 44.0111 128.426 40.4344 124.73 40.4344ZM171.811 48.1838V64.2788C171.811 68.0938 171.99 70.1206 174.434 70.1206V70.8359H160.843V70.1206C163.287 70.1206 163.466 68.0938 163.466 64.2788V50.3298C163.466 46.2167 162.75 43.5938 158.876 43.5938C157.207 43.5938 155.001 44.3091 153.213 45.5014V64.2788C153.213 68.0938 153.391 70.1206 155.836 70.1206V70.8359H142.244V70.1206C144.688 70.1206 144.867 68.0938 144.867 64.2788V47.707C144.867 43.8919 143.854 42.8189 141.827 42.1035V41.3882L152.736 39.0038H153.213V43.8323C156.193 41.0306 160.127 38.8846 164.062 38.8846C169.188 38.8846 171.811 42.2228 171.811 48.1838ZM196.631 71.5513C184.351 71.5513 176.721 62.8481 176.721 49.2568C176.721 35.904 184.589 26.724 196.75 26.724C209.089 26.724 216.72 35.4271 216.72 49.0184C216.72 62.3712 208.851 71.5513 196.631 71.5513ZM196.75 69.8822C203.963 69.8822 207.182 61.5367 207.182 49.1376C207.182 37.0962 203.844 28.3931 196.69 28.3931C189.418 28.3931 186.258 36.7386 186.258 49.1376C186.258 61.179 189.537 69.8822 196.75 69.8822ZM238.871 38.8846C245.488 38.8846 250.496 44.9649 250.496 54.2641C250.496 65.1133 243.879 71.5513 235.116 71.5513C233.268 71.5513 231.599 71.1936 230.168 70.5975V77.87C230.168 81.6851 230.347 83.7119 232.791 83.7119V84.4272H219.2V83.7119C221.644 83.7119 221.823 81.6851 221.823 77.87V47.707C221.823 43.8919 220.809 42.8189 218.783 42.1035V41.3882L229.691 39.0038H230.168V42.9977C232.314 40.5537 235.354 38.8846 238.871 38.8846ZM235.176 70.0014C240.004 70.0014 241.673 63.9807 241.673 56.6486C241.673 48.7203 239.944 42.8189 235.116 42.8189C233.268 42.8189 231.599 43.7727 230.168 45.0841V61.5367C230.168 66.9612 231.718 70.0014 235.176 70.0014ZM262.391 71.5513C259.47 71.5513 255.774 70.9552 253.509 69.9418L252.972 61.2982H253.687C256.191 66.2459 258.695 70.0014 263.404 70.0014C266.444 70.0014 268.888 68.3919 268.888 65.471C268.888 62.55 266.861 61.2386 262.689 59.033L260.364 57.7812C257.801 56.4101 253.687 54.2045 253.687 48.5415C253.687 42.4016 258.576 38.8846 264.715 38.8846C267.1 38.8846 270.796 39.4211 273.24 40.3748V47.5877H272.524C270.557 43.2958 267.994 40.4344 264.179 40.4344C261.198 40.4344 259.47 42.1632 259.47 44.488C259.47 47.7666 262.271 49.1972 264.119 50.151L266.444 51.4028C270.498 53.5488 274.73 55.516 274.73 61.2982C274.73 67.617 269.723 71.5513 262.391 71.5513Z" fill="#101010"/>
<path id="Israel" d="M151.235 98.6758V79.2328H153.682V98.6758H151.235ZM162.372 99.0837C158.51 99.0837 156.362 97.2617 156.144 94.1074H158.401C158.701 96.5547 160.332 97.2346 162.426 97.2346C164.737 97.2346 165.689 96.2284 165.689 94.9231C165.689 93.346 164.601 92.9381 162.018 92.3942C159.244 91.8231 156.77 91.2521 156.77 88.1793C156.77 85.8407 158.565 84.3179 161.828 84.3179C165.308 84.3179 167.022 85.9767 167.348 88.7231H165.091C164.873 86.874 163.867 86.0582 161.773 86.0582C159.761 86.0582 158.945 86.9556 158.945 88.0705C158.945 89.5933 160.305 89.8924 162.725 90.3819C165.553 90.953 167.919 91.5784 167.919 94.8144C167.919 97.6424 165.608 99.0837 162.372 99.0837ZM172.23 84.617V86.9556H172.285C173.128 85.596 174.596 84.4538 176.472 84.4538C176.88 84.4538 177.098 84.5082 177.37 84.617V86.7381H177.288C176.962 86.6293 176.744 86.6021 176.309 86.6021C174.134 86.6021 172.23 88.2337 172.23 90.8714V98.6758H170.028V84.617H172.23ZM189.858 98.8117C188.417 98.8117 187.655 98.1591 187.438 96.7179H187.41C186.567 97.8056 185.126 98.9477 182.733 98.9477C180.068 98.9477 177.974 97.6968 177.974 95.0319C177.974 91.7144 180.585 91.0346 184.093 90.4907C186.078 90.1916 187.465 90.0012 187.465 88.4784C187.465 86.9012 186.323 86.0038 184.31 86.0038C182.026 86.0038 180.884 86.9828 180.803 89.1038H178.681C178.763 86.3845 180.558 84.3451 184.283 84.3451C187.274 84.3451 189.477 85.46 189.477 88.8047V95.4942C189.477 96.6363 189.749 97.2617 190.973 96.9898H191.054V98.5942C190.782 98.703 190.429 98.8117 189.858 98.8117ZM183.223 97.2617C186.16 97.2617 187.492 95.1135 187.492 93.4819V91.0889C186.758 91.5512 185.48 91.9047 184.283 92.1223C182.081 92.5302 180.313 92.9109 180.313 94.9775C180.313 96.8539 181.781 97.2617 183.223 97.2617ZM198.689 99.0565C194.393 99.0565 191.891 95.7389 191.891 91.66C191.891 87.581 194.556 84.2635 198.553 84.2635C202.768 84.2635 205.025 87.5267 205.025 92.1767H194.148C194.311 95.0319 195.861 97.2074 198.689 97.2074C200.729 97.2074 202.088 96.2284 202.578 94.3249H204.726C204.073 97.3433 201.871 99.0565 198.689 99.0565ZM198.553 86.0038C195.943 86.0038 194.529 87.9617 194.202 90.5179H202.659C202.523 87.717 201.082 86.0038 198.553 86.0038ZM207.26 98.6758V79.2328H209.463V98.6758H207.26Z" fill="#101010"/>
</g>
</svg>
