<svg width="303" height="174" viewBox="0 0 303 174" fill="none" xmlns="http://www.w3.org/2000/svg">
<path d="M300.681 58.7884C282.017 119.873 211.151 142.249 157.799 115.968C159.19 118.132 160.59 120.29 161.976 122.457C164.121 125.808 160.163 131.077 156.418 128.644C148.699 123.627 133.954 110.613 137.962 99.5598C139.378 95.6526 142.714 94.3847 146.333 93.186C155.261 90.2281 165.129 88.243 174.443 86.9444C178.703 86.352 179.664 92.7822 175.824 94.138C168.157 96.8465 157.991 97.1168 150.911 100.765C150.519 100.965 150.176 101.182 149.856 101.402C173.652 118.117 204.617 123.946 232.671 115.486C261.971 106.653 283.508 84.5069 296.046 57.185C297.186 54.6997 301.508 56.0837 300.681 58.7884Z" fill="#FFFAF4"/>
<path d="M48.4595 104.767C46.4465 104.25 45.905 101.933 47.5215 99.3395C50.4017 94.7632 50.4618 85.0569 48.0856 79.2123C45.1037 71.8779 38.4979 73.6956 34.5913 77.554C31.3472 80.7425 28.6611 81.0334 27.1921 79.2268C24.5086 75.9109 31.0182 69.2581 37.9572 67.4386C53.2801 63.4123 58.5014 80.8535 56.5542 91.9947C54.8072 101.986 49.8743 105.127 48.4595 104.767ZM66.0185 111.517C64.1326 111.148 63.8399 108.129 63.9898 106.199C64.5467 99.028 63.8299 83.9621 63.7168 76.1291C63.6659 73.2118 64.8957 71.3097 67.2739 71.4111C69.0433 71.493 70.7968 72.85 70.8408 76.5713C70.9081 80.3499 71.2776 103.102 70.641 106.299C69.8594 110.289 68.2034 111.964 66.0185 111.517ZM59.0097 66.3578C55.8502 64.1703 59.1441 59.6261 65.7959 55.7866C72.9975 51.6569 77.8402 52.893 80.4677 54.4289C87.1055 58.2738 89.775 69.2741 86.3531 77.6094C83.9174 83.6075 81.2892 86.0115 79.5626 85.378C76.7311 84.3258 76.8754 81.396 78.4452 78.6878C82.7107 71.2781 81.4441 62.5786 76.1928 60.1732C73.3826 58.8451 68.9441 62.0519 66.4946 63.5819C63.0264 65.7264 62.0887 68.5114 59.0097 66.3578ZM108.806 79.7655C103.301 81.3357 95.0148 80.498 91.8636 69.6268C89.4044 61.2786 92.7178 56.1256 95.4141 53.5604C95.0684 53.3671 94.7568 53.0932 94.5597 52.7727C93.2626 50.8963 93.7708 49.3542 95.2317 47.692C97.3317 45.3024 101.489 43.2115 104.609 42.3439C109.46 40.9726 116.212 42.6345 118.59 50.9486C122.82 65.788 116.352 77.6324 108.806 79.7655ZM97.826 65.7338C99.4768 71.2723 102.975 74.4573 106.095 73.5897C114.489 71.245 113.39 57.5366 112.018 52.6857C110.929 48.8554 107.844 47.839 105.941 48.4126C104.439 48.8231 102.152 50.7542 100.346 52.2232C100.519 52.4864 100.659 52.8302 100.788 53.3119C101.374 55.4105 96.1053 60.0233 97.826 65.7338ZM130.175 70.3432C126.964 71.3147 124.598 69.272 123.578 65.6136C121.925 59.7419 125.524 56.2758 128.202 54.6526C126.951 48.6178 125.991 41.3295 125.293 31.7309C124.321 18.171 128.801 10.1398 136.478 6.68509C139.296 5.4057 143.406 5.00346 146.386 5.92852C149.826 7.00031 151.091 9.29043 150.501 10.4654C148.797 13.829 143.483 10.4475 139.711 11.8472C127.481 16.4188 133.198 44.2752 134.939 53.6497C137.391 66.7417 133.018 69.4542 130.175 70.3432Z" fill="#FFFAF4"/>
</svg>
