<svg width="194" height="90" viewBox="0 0 194 90" fill="none" xmlns="http://www.w3.org/2000/svg">
<path d="M0.58297 0.72825C-3.87957 26.5895 17.9714 47.9163 42.4063 48.1539C41.4953 48.6899 40.5825 49.2224 39.6727 49.7608C38.2657 50.5928 38.7422 53.258 40.566 53.0587C44.3262 52.6477 52.1439 50.604 52.72 45.8077C52.9241 44.1124 51.9352 43.0298 50.8296 41.9201C48.1024 39.1823 44.8505 36.6273 41.6745 34.4267C40.2216 33.4207 38.6785 35.6013 39.836 36.8095C42.1469 39.2224 45.8258 41.2036 47.7475 43.8524C47.8542 43.9986 47.9397 44.1413 48.0163 44.2817C36.1937 46.007 23.7566 42.4124 15.0326 34.1159C5.92057 25.4515 2.1208 13.3411 2.58015 0.998314C2.62201 -0.124397 0.780506 -0.416868 0.58297 0.72825Z" fill="#FFFAF4"/>
<path d="M83.1118 63.8109C81.9999 62.9872 82.247 61.4222 83.8943 60.2279C86.8184 58.1275 89.2895 52.1558 89.2895 47.955C89.2895 42.6834 84.7592 42.148 81.3821 43.5483C78.5816 44.7014 76.8518 44.2072 76.3988 42.7246C75.5751 40.0064 81.2585 37.5354 85.9947 38.1531C96.4555 39.5122 95.3024 51.5792 91.3075 57.9627C87.7245 63.6873 83.8943 64.3875 83.1118 63.8109ZM92.2496 72.3772C91.1788 71.6771 91.7554 69.7414 92.3319 68.5883C94.4735 64.3051 97.8094 54.8327 99.7039 49.973C100.404 48.1609 101.64 47.296 103.081 47.955C104.152 48.4492 104.893 49.7259 103.987 52.0322C103.081 54.3797 97.6035 68.5059 96.4092 70.318C94.9265 72.5831 93.4851 73.2009 92.2496 72.3772ZM99.2509 42.7658C97.8506 40.6242 101.022 38.6473 106.087 37.9472C111.565 37.2059 114.242 39.1827 115.477 40.7889C118.607 44.825 117.495 52.2793 113.295 56.5625C110.288 59.6513 108.064 60.475 107.158 59.6513C105.676 58.2922 106.499 56.5213 108.147 55.2446C112.636 51.7439 114.036 46.0605 111.4 43.26C110 41.7362 106.458 42.601 104.564 42.9305C101.887 43.3835 100.61 44.8662 99.2509 42.7658ZM126.603 63.5226C122.814 63.1108 117.913 60.5162 118.695 53.0206C119.272 47.2548 122.608 44.9073 124.914 44.0013C124.749 43.7954 124.626 43.5483 124.585 43.3012C124.255 41.8185 124.955 40.9948 126.273 40.3359C128.168 39.3887 131.256 39.1415 133.398 39.3887C136.734 39.7593 140.482 42.4775 139.864 48.2021C138.752 58.4158 131.792 64.0992 126.603 63.5226ZM123.349 52.1146C122.978 55.9447 124.338 58.7864 126.479 59.0335C132.245 59.6925 135.004 50.9614 135.375 47.6255C135.663 44.9897 134.016 43.5894 132.698 43.4659C131.668 43.3423 129.774 43.9601 128.291 44.4131C128.332 44.619 128.332 44.8662 128.291 45.1956C128.126 46.6371 123.72 48.1609 123.349 52.1146ZM142.146 63.0696C139.922 62.8637 138.975 61.0104 139.263 58.4981C139.716 54.4621 142.805 53.2265 144.864 52.8971C145.605 48.861 146.841 44.1248 148.818 38.0296C151.618 29.4221 156.395 25.5919 161.997 25.386C164.056 25.3037 166.692 26.0862 168.298 27.404C170.151 28.9279 170.357 30.6576 169.698 31.2342C167.804 32.8815 165.374 29.4633 162.697 29.3809C154.007 29.1338 150.547 47.749 149.271 53.9679C147.5 62.6577 144.123 63.2343 142.146 63.0696Z" fill="#FFFAF4"/>
</svg>
